<svg id="Default" xmlns="http://www.w3.org/2000/svg" xmlns:xlink="http://www.w3.org/1999/xlink" viewBox="0 0 1920 1080"><defs><style>.cls-1{fill:url(#linear-gradient);}.cls-2{fill:#7a7a7a;}.cls-3{fill:#565656;}.cls-4{fill:url(#linear-gradient-2);}.cls-26,.cls-5{opacity:0.8;}.cls-5{fill:url(#radial-gradient);}.cls-22,.cls-23,.cls-6{opacity:0.6;}.cls-6{fill:url(#radial-gradient-2);}.cls-7{fill:url(#linear-gradient-3);}.cls-8{fill:url(#linear-gradient-4);}.cls-9{fill:url(#linear-gradient-5);}.cls-10,.cls-11{opacity:0.9;}.cls-11{fill:#39bdf7;}.cls-12{opacity:0.55;}.cls-13{fill:#dbd505;}.cls-14{fill:#777;}.cls-14,.cls-18,.cls-19,.cls-30,.cls-31{opacity:0.5;}.cls-15,.cls-16,.cls-24,.cls-27,.cls-28{opacity:0.3;}.cls-15{fill:url(#linear-gradient-6);}.cls-16{fill:url(#linear-gradient-7);}.cls-17{fill:url(#linear-gradient-8);}.cls-18{fill:url(#linear-gradient-9);}.cls-19{fill:url(#linear-gradient-10);}.cls-20{fill:url(#linear-gradient-11);}.cls-21{fill:#b2b1b1;}.cls-22{fill:url(#linear-gradient-12);}.cls-23{fill:url(#linear-gradient-13);}.cls-25{fill:#d8e20c;}.cls-26{fill:url(#linear-gradient-14);}.cls-27{fill:url(#linear-gradient-15);}.cls-28{fill:url(#linear-gradient-16);}.cls-29{fill:url(#linear-gradient-17);}.cls-30{fill:url(#linear-gradient-18);}.cls-31{fill:url(#linear-gradient-19);}.cls-32{opacity:0.4;fill:url(#linear-gradient-20);}.cls-33{fill:url(#linear-gradient-21);}.cls-34{fill:#727272;}.cls-35{fill:url(#linear-gradient-22);}.cls-36{fill:url(#linear-gradient-23);}</style><linearGradient id="linear-gradient" x1="1019.48" y1="965.04" x2="879.97" y2="247.33" gradientUnits="userSpaceOnUse"><stop offset="0"/><stop offset="0.14" stop-color="#262626"/><stop offset="0.45" stop-color="#878787"/><stop offset="0.7" stop-color="#d6d6d6"/><stop offset="0.74" stop-color="#cdcdcd"/><stop offset="0.8" stop-color="#b6b6b6"/><stop offset="0.88" stop-color="#909090"/><stop offset="0.97" stop-color="#5b5b5b"/><stop offset="1" stop-color="#454545"/></linearGradient><linearGradient id="linear-gradient-2" x1="1187.13" y1="874.86" x2="1065.39" y2="248.59" gradientUnits="userSpaceOnUse"><stop offset="0" stop-color="#d6d6d6"/><stop offset="0.17" stop-color="#a9a9a9"/><stop offset="0.47" stop-color="#616161"/><stop offset="0.71" stop-color="#2d2d2d"/><stop offset="0.9" stop-color="#0c0c0c"/><stop offset="1"/></linearGradient><radialGradient id="radial-gradient" cx="410.04" cy="576.62" r="205.59" gradientUnits="userSpaceOnUse"><stop offset="0" stop-color="#fff"/><stop offset="0.66" stop-color="#fff" stop-opacity="0.34"/><stop offset="1" stop-color="#fff" stop-opacity="0"/></radialGradient><radialGradient id="radial-gradient-2" cx="356.23" cy="509.77" r="102.37" xlink:href="#radial-gradient"/><linearGradient id="linear-gradient-3" x1="1088.2" y1="224.08" x2="965.29" y2="224.08" gradientUnits="userSpaceOnUse"><stop offset="0" stop-color="#999"/><stop offset="1"/></linearGradient><linearGradient id="linear-gradient-4" x1="671.14" y1="931.46" x2="1439.01" y2="163.58" gradientUnits="userSpaceOnUse"><stop offset="0" stop-color="#b3b3b3"/><stop offset="0.03" stop-color="#ababab"/><stop offset="0.2" stop-color="#7b7b7b"/><stop offset="0.37" stop-color="#545454"/><stop offset="0.54" stop-color="#353535"/><stop offset="0.7" stop-color="#1f1f1f"/><stop offset="0.86" stop-color="#111"/><stop offset="1" stop-color="#0d0d0d"/></linearGradient><linearGradient id="linear-gradient-5" x1="948.21" y1="227.88" x2="963.12" y2="227.88" gradientUnits="userSpaceOnUse"><stop offset="0" stop-color="#e0e0e0"/><stop offset="0.16" stop-color="#bfbfbf"/><stop offset="0.44" stop-color="#8a8a8a"/><stop offset="0.68" stop-color="#636363"/><stop offset="0.88" stop-color="#4b4b4b"/><stop offset="1" stop-color="#424242"/></linearGradient><linearGradient id="linear-gradient-6" x1="1018.49" y1="759.99" x2="1044.31" y2="759.99" gradientUnits="userSpaceOnUse"><stop offset="0"/><stop offset="0.07" stop-color="#070707"/><stop offset="0.17" stop-color="#1c1c1c"/><stop offset="0.29" stop-color="#3d3d3d"/><stop offset="0.43" stop-color="#6c6c6c"/><stop offset="0.59" stop-color="#a6a6a6"/><stop offset="0.7" stop-color="#d6d6d6"/><stop offset="0.73" stop-color="#cdcdcd"/><stop offset="0.77" stop-color="#b6b6b6"/><stop offset="0.83" stop-color="#909090"/><stop offset="0.9" stop-color="#5a5a5a"/><stop offset="0.98" stop-color="#171717"/><stop offset="1"/></linearGradient><linearGradient id="linear-gradient-7" x1="1013.34" y1="781.08" x2="1049.05" y2="781.08" xlink:href="#linear-gradient-6"/><linearGradient id="linear-gradient-8" x1="1047.55" y1="780.84" x2="1047.55" y2="780.84" gradientUnits="userSpaceOnUse"><stop offset="0"/><stop offset="0.15" stop-color="#070707"/><stop offset="0.37" stop-color="#1c1c1c"/><stop offset="0.64" stop-color="#3d3d3d"/><stop offset="0.7" stop-color="#454545"/><stop offset="0.76" stop-color="#3c3c3c"/><stop offset="0.87" stop-color="#252525"/><stop offset="1"/></linearGradient><linearGradient id="linear-gradient-9" x1="1018.2" y1="770.14" x2="1044.19" y2="770.14" gradientUnits="userSpaceOnUse"><stop offset="0"/><stop offset="0.08" stop-color="#070707"/><stop offset="0.2" stop-color="#1c1c1c"/><stop offset="0.34" stop-color="#3d3d3d"/><stop offset="0.51" stop-color="#6b6b6b"/><stop offset="0.68" stop-color="#a6a6a6"/><stop offset="0.7" stop-color="#ababab"/><stop offset="0.73" stop-color="#a2a2a2"/><stop offset="0.79" stop-color="#8b8b8b"/><stop offset="0.86" stop-color="#656565"/><stop offset="0.94" stop-color="#303030"/><stop offset="1"/></linearGradient><linearGradient id="linear-gradient-10" x1="1013.19" y1="793.25" x2="1048.91" y2="793.25" xlink:href="#linear-gradient-9"/><linearGradient id="linear-gradient-11" x1="1024.02" y1="399.11" x2="1041.87" y2="399.11" xlink:href="#linear-gradient-6"/><linearGradient id="linear-gradient-12" x1="1013.26" y1="582.85" x2="1049.13" y2="582.85" gradientUnits="userSpaceOnUse"><stop offset="0" stop-color="#a9aa00"/><stop offset="1" stop-color="#696a00"/></linearGradient><linearGradient id="linear-gradient-13" x1="1013.19" y1="797.72" x2="1048.91" y2="797.72" gradientUnits="userSpaceOnUse"><stop offset="0" stop-color="#3f6500"/><stop offset="1" stop-color="#639b00"/></linearGradient><linearGradient id="linear-gradient-14" x1="690.76" y1="832.89" x2="1616.62" y2="832.89" gradientUnits="userSpaceOnUse"><stop offset="0" stop-color="#fff"/><stop offset="0.12" stop-color="#fff" stop-opacity="0.91"/><stop offset="0.38" stop-color="#fff" stop-opacity="0.66"/><stop offset="0.75" stop-color="#fff" stop-opacity="0.27"/><stop offset="1" stop-color="#fff" stop-opacity="0"/></linearGradient><linearGradient id="linear-gradient-15" x1="1020.2" y1="317.62" x2="1045.86" y2="317.62" xlink:href="#linear-gradient-6"/><linearGradient id="linear-gradient-16" x1="1015.08" y1="338.58" x2="1050.57" y2="338.58" xlink:href="#linear-gradient-6"/><linearGradient id="linear-gradient-17" x1="1049.07" y1="338.34" x2="1049.07" y2="338.34" xlink:href="#linear-gradient-8"/><linearGradient id="linear-gradient-18" x1="1019.92" y1="327.71" x2="1045.74" y2="327.71" gradientUnits="userSpaceOnUse"><stop offset="0"/><stop offset="0.08" stop-color="#070707"/><stop offset="0.2" stop-color="#1c1c1c"/><stop offset="0.34" stop-color="#3d3d3d"/><stop offset="0.5" stop-color="#6b6b6b"/><stop offset="0.68" stop-color="#a6a6a6"/><stop offset="0.7" stop-color="#ababab"/><stop offset="0.73" stop-color="#a2a2a2"/><stop offset="0.79" stop-color="#8b8b8b"/><stop offset="0.86" stop-color="#656565"/><stop offset="0.93" stop-color="#303030"/><stop offset="1"/></linearGradient><linearGradient id="linear-gradient-19" x1="1014.94" y1="350.67" x2="1050.42" y2="350.67" xlink:href="#linear-gradient-18"/><linearGradient id="linear-gradient-20" x1="1014.94" y1="355.1" x2="1050.42" y2="355.1" gradientUnits="userSpaceOnUse"><stop offset="0" stop-color="#fdff15"/><stop offset="1" stop-color="#696a00"/></linearGradient><linearGradient id="linear-gradient-21" x1="1018.18" y1="309.73" x2="1048.83" y2="309.73" xlink:href="#linear-gradient-8"/><linearGradient id="linear-gradient-22" x1="1020.66" y1="227.01" x2="1046.96" y2="227.01" xlink:href="#linear-gradient-6"/><linearGradient id="linear-gradient-23" x1="1018.62" y1="145.96" x2="1049.27" y2="145.96" xlink:href="#linear-gradient-8"/></defs><title>190812_Tank_Yellow_fuel</title><path class="cls-1" d="M463.9,328.59l1.17-.18.28,0h0L1403,192.71a298.28,298.28,0,0,1,109.76,4.36c133.33,29.9,230.54,145.35,234.31,282.6,3.76,137-86.59,258-217.28,296.51L620.64,1040.89l-.78.23h0c-124.34,36.22-259.37,5.72-355.1-82.1a361.81,361.81,0,0,1-100-378.38c43.54-134.79,161-232.07,300.59-252.27h0l.61-.09L1400.74,193l5.85-.77"/><path class="cls-2" d="M977.13,195a35.37,35.37,0,0,1-8.48-3.25c-3.19-1.84-4.95-4.31-1.56-7,3.89-3.07,12.64-5,17.11-5.88a231,231,0,0,1,36.24-3.64q13-.44,25.9.06c14.14.55,28,1.51,41.86,5.08l13.52-1.78c-16.33-4.17-38.71-5.89-55.37-6.41q-13-.4-25.9-.06c-15.75.43-31.3,1.48-46.85,4.33-6.05,1.11-16.9,3.43-22.31,7.11-4.57,3.11-3.79,6.23.66,9a41.53,41.53,0,0,0,10.92,4.32Z"/><path class="cls-3" d="M977.15,195l-14.28,1.78.25,72.24-385.35,56.5q-3.36.5-6.71,1.1c-2,.37-4,.76-5.94,1.2q-2.7.6-5.37,1.32c-1.58.43-3.16.91-4.71,1.43-1.36.46-2.7.95-4,1.51-1.12.48-2.23,1-3.3,1.59a24.81,24.81,0,0,0-2.72,1.71,15.28,15.28,0,0,0-2.08,1.86,9.55,9.55,0,0,0-1.42,2,7.13,7.13,0,0,0-.71,2,7.43,7.43,0,0,0-.09,2.21,9.19,9.19,0,0,0,.59,2.29,13.87,13.87,0,0,0,1.2,2.37,22.61,22.61,0,0,0,1.89,2.54,34.46,34.46,0,0,0,2.59,2.68c1,.94,2,1.82,3.11,2.67l17.41,15.67c-3.46-2.85-9.23-8.2-9.41-13.59v-.25c0-3.53,2.4-6.07,5-7.87a24,24,0,0,1,2.37-1.47c.91-.5,1.85-1,2.81-1.37s2.24-.93,3.38-1.35,2.48-.85,3.74-1.23c1.42-.42,2.85-.81,4.28-1.18,1.59-.4,3.19-.77,4.79-1.11q2.63-.56,5.26-1t5.41-.89L977.33,282.8Z"/><path class="cls-4" d="M1087.54,265.76c-1.2-.32-2.37-.68-3.6-.93s-2.64-.57-4-.76-3-.47-4.45-.61c-1.73-.18-3.51-.36-5.25-.47-3.59-.2-7.19-.42-10.79-.42-4.31,0-8.63.23-12.94.45l-1.32,0c-8.49.48-16.93,1.4-25.37,2.37-14.21,1.64-28.45,3.91-42.5,6.67v10.7L595.2,340.17q-2.72.4-5.41.89t-5.26,1c-1.61.34-3.2.71-4.79,1.11s-2.86.76-4.28,1.18c-1.26.38-2.51.79-3.74,1.23s-2.27.86-3.38,1.35-1.9.87-2.81,1.38a22.17,22.17,0,0,0-2.37,1.46c-2.58,1.8-5.09,4.33-5.08,7.85v.26c.19,5.39,4.32,9.36,9.42,13.75l6.64,7.23c20.16,22.95,37,49.67,51.13,76.24,31.53,59.32,54.38,128.26,68.53,193.53S715.68,786,711.58,853c-1.48,24.26-4.61,49.69-10.45,74l-1.84,5.94a60.58,60.58,0,0,0-2.2,7.45,40,40,0,0,0-1,6.79,28.83,28.83,0,0,0,0,2.94,22.76,22.76,0,0,0,.33,2.86,18.19,18.19,0,0,0,.63,2.44,14.38,14.38,0,0,0,.94,2.21l.17.31a12.71,12.71,0,0,0,6.17,5.61,18.71,18.71,0,0,0,2.62,1,23.91,23.91,0,0,0,3.13.68,32.66,32.66,0,0,0,3.57.33c1.26,0,2.52,0,3.79,0s2.8-.19,4.19-.36c1.54-.18,3.07-.42,4.59-.69s3.31-.65,5-1,3.51-.87,5.26-1.37l791.41-224.24c1.78-.52,5.45-1.86,7.2-2.47q3-1.05,5.92-2.24,6.3-2.57,12.37-5.65t12-6.63q5.78-3.51,11.27-7.46c3.4-2.46,6.71-5.06,9.89-7.8,3-2.56,5.81-5.25,8.51-8.1a94.74,94.74,0,0,0,7-8.23,72,72,0,0,0,5.48-8.43c41.16-72.9,41-170.08,22.15-246.82-18.54-75.53-63.69-164.33-137-206a64.35,64.35,0,0,0-7.49-3.59,84.58,84.58,0,0,0-8.81-3c-3.22-.92-6.5-1.67-9.79-2.29-3.63-.69-7.28-1.22-11-1.62-4-.44-8-.73-11.94-.9-4.29-.19-8.58-.23-12.87-.15s-8.73.28-13.09.63q-3.18.24-6.36.6-3,.33-5.88.76l-90.89,13.28Z"/><circle class="cls-5" cx="410.04" cy="576.62" r="205.59"/><circle class="cls-6" cx="356.23" cy="509.77" r="102.37"/><path class="cls-7" d="M977.31,273.12,977.17,195a35.73,35.73,0,0,1-8.49-3.26c-3.19-1.83-4.94-4.3-1.55-7,3.89-3.07,12.64-5,17.1-5.88a229.9,229.9,0,0,1,36.24-3.63q13-.45,25.9.05c14.14.55,28,1.52,41.83,5.09l-.63,70.43,0,14.94c-1.22-.36-2.45-.68-3.7-.95s-2.71-.55-4.08-.78-3-.43-4.43-.59c-1.76-.2-3.52-.35-5.29-.46-3.63-.24-7.27-.33-10.9-.32-4.37,0-8.74.17-13.1.41-8.58.49-17.13,1.32-25.66,2.3-14.38,1.67-28.76,3.91-43,6.7"/><path class="cls-8" d="M1087.65,265.73c-1.2-.32-2.37-.69-3.6-.93s-2.64-.57-4-.77-3-.46-4.44-.61c-1.74-.17-3.52-.36-5.26-.46-3.59-.21-7.19-.43-10.79-.42-4.31,0-8.63.23-12.94.44l-1.32,0c-8.49.48-16.93,1.39-25.37,2.37-14.21,1.64-28.45,3.91-42.5,6.67v10.7L595.31,340.14q-2.71.41-5.41.89c-1.76.31-3.51.66-5.26,1s-3.2.71-4.79,1.11-2.86.75-4.28,1.18c-1.26.38-2.51.79-3.74,1.23s-2.27.86-3.38,1.35-1.9.87-2.81,1.37a26,26,0,0,0-2.37,1.46c-2.58,1.81-5.09,4.34-5.08,7.86v.25c.19,5.4,4.32,9.36,9.42,13.76l6.64,7.23c20.17,22.95,37,49.66,51.13,76.24,31.53,59.31,54.38,128.26,68.54,193.53S715.79,786,711.69,852.92c-1.48,24.26-4.61,49.69-10.45,74l-1.84,5.94a60.58,60.58,0,0,0-2.2,7.45,39.82,39.82,0,0,0-1,6.79,28.83,28.83,0,0,0,0,2.94,23,23,0,0,0,.33,2.86,18.59,18.59,0,0,0,.63,2.44,14.81,14.81,0,0,0,.94,2.21l.17.3a12.73,12.73,0,0,0,6.17,5.62,19.18,19.18,0,0,0,2.62,1,23.91,23.91,0,0,0,3.13.68,32.66,32.66,0,0,0,3.57.33c1.26,0,2.53,0,3.79,0s2.8-.19,4.19-.36,3.07-.42,4.59-.7,3.31-.65,4.95-1,3.51-.88,5.26-1.37L1528,737.76c1.78-.52,5.45-1.86,7.2-2.47q3-1,5.92-2.25,6.3-2.55,12.38-5.64t12-6.64c3.85-2.33,7.62-4.81,11.27-7.45,3.4-2.46,6.71-5.06,9.89-7.81,3-2.56,5.82-5.25,8.51-8.09a94.74,94.74,0,0,0,7-8.23,72,72,0,0,0,5.48-8.43c41.16-72.9,41-170.09,22.15-246.82-18.54-75.53-63.69-164.34-137-206a62.77,62.77,0,0,0-7.49-3.59,82.31,82.31,0,0,0-8.81-3c-3.22-.92-6.5-1.67-9.79-2.3-3.63-.68-7.28-1.21-10.95-1.62q-6-.64-11.94-.9-6.43-.27-12.87-.15t-13.09.63q-3.18.25-6.36.61-3,.33-5.88.76l-90.89,13.28Z"/><path class="cls-9" d="M948.21,187.77l.38,74.49c0,1.12,2.34,2.22,3,2.54,1.23.61,2.49,1.11,3.76,1.6,2.56,1,5.14,1.82,7.75,2.63l-.25-72.24A41.53,41.53,0,0,1,952,192.47c-2.91-1.8-4.25-3.75-3.56-5.75"/><g class="cls-10"><path class="cls-11" d="M1418.51,670.14c-154.6,37-594.56,150.52-706.87,178.16-.15,3.33-.07,1.32-.27,4.62-1.48,24.26-4.61,49.69-10.45,74l-1.84,5.94a60.58,60.58,0,0,0-2.2,7.45,39.82,39.82,0,0,0-1,6.79,28.83,28.83,0,0,0,0,2.94,23,23,0,0,0,.33,2.86,17.14,17.14,0,0,0,.63,2.44,14.81,14.81,0,0,0,.94,2.21l.17.3a12.73,12.73,0,0,0,6.17,5.62,18.71,18.71,0,0,0,2.62,1,23.91,23.91,0,0,0,3.13.68,32.66,32.66,0,0,0,3.57.33c1.26,0,2.52,0,3.79,0s2.8-.19,4.19-.36,3.07-.42,4.59-.7,3.31-.65,5-1,3.51-.88,5.26-1.37l791.41-224.24c1.78-.52,5.45-1.86,7.2-2.47q3-1,5.92-2.25c4.2-1.7,8.33-3.59,12.37-5.64s8.06-4.27,11.95-6.64,7.62-4.81,11.28-7.45c3.4-2.46,6.71-5.06,9.89-7.81,3-2.56,5.81-5.25,8.51-8.09a94.74,94.74,0,0,0,7-8.23,72,72,0,0,0,5.48-8.43A231.71,231.71,0,0,0,1620.54,653C1604.93,651.88,1515.61,646.9,1418.51,670.14Z"/></g><g class="cls-12"><path class="cls-13" d="M559.9,363.43c1.25,2.73,4.9,5.74,7.71,8.17l6.64,7.22c20.16,23,37,49.67,51.12,76.25,31.53,59.31,54.39,128.25,68.54,193.53s21.87,137.32,17.78,204.29c-1.49,24.25-4.62,49.69-10.46,74l-1.84,5.93a62.53,62.53,0,0,0-2.2,7.46,40.87,40.87,0,0,0-1,6.78,28.83,28.83,0,0,0,0,2.94,22.76,22.76,0,0,0,.33,2.86,18.73,18.73,0,0,0,.63,2.45,15.94,15.94,0,0,0,.94,2.21l.17.3a12.7,12.7,0,0,0,6.17,5.61,17.69,17.69,0,0,0,2.63,1,23.77,23.77,0,0,0,3.12.68,32.87,32.87,0,0,0,3.57.32c1.26,0,2.53,0,3.79,0s2.8-.19,4.19-.35,3.07-.42,4.6-.7,3.3-.65,4.94-1,3.52-.88,5.26-1.37L1528,737.72c1.77-.51,5.44-1.86,7.19-2.47,2-.69,4-1.45,5.92-2.24,4.2-1.7,8.33-3.6,12.38-5.65s8-4.27,12-6.63,7.62-4.82,11.27-7.46c3.41-2.46,6.72-5,9.9-7.8,3-2.56,5.81-5.25,8.51-8.09a95,95,0,0,0,7-8.24,71.94,71.94,0,0,0,5.49-8.42c41.16-72.9,41-170.09,22.14-246.83-18.54-75.53-63.69-164.33-137-206a64.42,64.42,0,0,0-7.49-3.6,87.66,87.66,0,0,0-8.8-3"/></g><path d="M1044.35,775.88l-.3-.12.14-15.49a1.34,1.34,0,0,1-.07.4,1.35,1.35,0,0,0,.05-.29c-.07-1.53-1.36-3-3.79-4a14.34,14.34,0,0,0-1.75-.58l.16.05c0,.65-.85,1.09-1.3,1.3a10.14,10.14,0,0,1-1.85.57,21.09,21.09,0,0,1-6.34.33,15.9,15.9,0,0,1-3.13-.54c-.66-.18-2.44-.69-2.45-1.7-3.56,1-5.12,2.3-5.37,4.44,0,0,0,0,0-.05v.1h0l-.14,15.39c-3.41,1.36-4.85,3-5,5.16v19.21c0,2.45,4.26,3.68,5.82,4.12a39,39,0,0,0,7.42,1.29,49.41,49.41,0,0,0,15-.79,22,22,0,0,0,4.38-1.38c1.06-.48,3.09-1.55,3.1-3.1V781C1048.84,779.09,1047.39,777.18,1044.35,775.88Z"/><path class="cls-14" d="M1023.93,755.69c-3.75,1-5.36,2.35-5.59,4.56,0,1.76,3.08,2.63,4.21,3a28.72,28.72,0,0,0,5.37.92,36.22,36.22,0,0,0,10.84-.57,15.94,15.94,0,0,0,3.17-1c.77-.35,2.23-1.11,2.24-2.22-.07-1.53-1.36-3-3.79-4a14.4,14.4,0,0,0-1.75-.59l.16.06c0,.64-.85,1.09-1.3,1.29a8.78,8.78,0,0,1-1.85.57,20.77,20.77,0,0,1-6.34.33,16.65,16.65,0,0,1-3.13-.53c-.66-.19-2.46-.7-2.46-1.72"/><path class="cls-14" d="M1044.35,775.88c3,1.3,4.49,3.21,4.56,5.09,0,1.55-2,2.62-3.1,3.1a21.41,21.41,0,0,1-4.38,1.38,49.09,49.09,0,0,1-15,.79A38.16,38.16,0,0,1,1019,785c-1.56-.45-5.83-1.67-5.82-4.12.16-2.17,1.43-3.79,5-5.16,0,1.75,3.13,3,4.25,3.29a28,28,0,0,0,5.3.92,35.35,35.35,0,0,0,10.71-.57,15.23,15.23,0,0,0,3.14-1c.76-.35,2.44-1.48,2.45-2.58Z"/><path class="cls-15" d="M1024.07,755.69c-3.75,1-5.35,2.35-5.58,4.56,0,1.76,3.08,2.63,4.21,3a28.62,28.62,0,0,0,5.36.92,36.27,36.27,0,0,0,10.85-.57,16.14,16.14,0,0,0,3.17-1c.76-.35,2.23-1.11,2.23-2.22-.07-1.53-1.35-3-3.79-4a13.71,13.71,0,0,0-1.74-.59l.16.06c0,.64-.86,1.09-1.31,1.29a8.44,8.44,0,0,1-1.85.57,20.69,20.69,0,0,1-6.33.33,16.65,16.65,0,0,1-3.13-.53c-.66-.19-2.46-.7-2.46-1.72"/><path class="cls-16" d="M1044.49,775.88c3,1.3,4.5,3.21,4.56,5.09,0,1.55-2,2.62-3.09,3.1a21.31,21.31,0,0,1-4.39,1.38,49,49,0,0,1-15,.79,38.16,38.16,0,0,1-7.42-1.28c-1.57-.45-5.83-1.67-5.82-4.12.16-2.17,1.43-3.79,5-5.16,0,1.75,3.13,3,4.25,3.29a28,28,0,0,0,5.3.92,35.35,35.35,0,0,0,10.71-.57,15,15,0,0,0,3.13-1c.76-.35,2.45-1.48,2.45-2.58Z"/><path d="M1052.71,760.2a0,0,0,0,1,0,0v.07S1052.71,760.22,1052.71,760.2Z"/><polygon class="cls-17" points="1047.55 780.84 1047.55 780.84 1047.55 780.84 1047.55 780.84"/><path class="cls-18" d="M1022.45,779a28,28,0,0,0,5.3.92,35,35,0,0,0,10.71-.57,15.23,15.23,0,0,0,3.14-1c.76-.35,2.44-1.48,2.45-2.58l.14-15.49a1.34,1.34,0,0,1-.07.4,1.35,1.35,0,0,0,.05-.29v0c0,1.1-1.48,1.86-2.24,2.21a15.31,15.31,0,0,1-3.17,1,36.22,36.22,0,0,1-10.84.57,28.86,28.86,0,0,1-5.37-.92c-1.13-.32-4.2-1.19-4.21-2.94h0l-.14,15.39C1018.2,777.41,1021.33,778.63,1022.45,779Z"/><path class="cls-19" d="M1045.81,784.05a21.41,21.41,0,0,1-4.38,1.38,49.09,49.09,0,0,1-15,.79,38.16,38.16,0,0,1-7.42-1.28c-1.56-.45-5.83-1.67-5.82-4.12V800c0,2.45,4.26,3.68,5.82,4.13a39.73,39.73,0,0,0,7.42,1.28,49.41,49.41,0,0,0,15-.79,22,22,0,0,0,4.38-1.38c1.06-.48,3.09-1.55,3.1-3.1V781C1048.9,782.5,1046.87,783.57,1045.81,784.05Z"/><path class="cls-20" d="M1024,755.85c-.11.72.59,1.48,2.22,2.06a15.34,15.34,0,0,0,6.58.7,14,14,0,0,0,3.27-.59c.77-.25,2.44-.83,2.45-2l.19-41.95.59-128.23.24-50.42,1-215.12.79-169.68.51-110v0c.17-.51-1.42-.69-1.7-.74a28.34,28.34,0,0,0-4-.38,39.44,39.44,0,0,0-8.05.32c-.37.06-1.72.11-1.91.67v.08l-.33,109.93-.51,169.67-.65,215.1-.15,50.42L1024.15,714l-.13,42"/><path class="cls-21" d="M1036.15,39.61a39.44,39.44,0,0,0-8.05.32c-.37.06-1.72.11-1.91.67s1.41.69,1.7.74a28.34,28.34,0,0,0,4,.38,40.17,40.17,0,0,0,8-.32c.37-.06,1.73-.11,1.91-.67s-1.42-.69-1.7-.74A28.34,28.34,0,0,0,1036.15,39.61Z"/><path class="cls-22" d="M1024.1,755.7l-.16,0-.14,0v0c-3.56,1-5.12,2.31-5.37,4.45v0h0l-.14,15.37h0v0c-3.58,1.37-4.85,3-5,5.15h0v19.23c0,2.45,4.26,3.68,5.83,4.12a39,39,0,0,0,7.41,1.29,49.39,49.39,0,0,0,15-.79,21.64,21.64,0,0,0,4.38-1.38c1.07-.48,3.09-1.55,3.1-3.1V781.65a2,2,0,0,0,.15-.68c-.07-1.88-1.52-3.79-4.56-5.09l-.3-.12s0,0,0,0l-.14,0,.14-14.87a1.43,1.43,0,0,0,.13-.54c-.07-1.53-1.36-3-3.79-4a13.33,13.33,0,0,0-1.75-.59l.17.06v0l-.31-.1.17.06a0,0,0,0,0,0,0l-.16-.05.16.05a1,1,0,0,1-.31.63,1.07,1.07,0,0,0,.08-.41l1.76-396s-.26,1.42-7.88,1.42c-7,0-7.29-1.45-7.29-1.45l-1.12,395.7-.16,0h0l.16,0"/><path class="cls-23" d="M1048.91,789.88v10.31c0,1.55-2,2.62-3.1,3.1a22,22,0,0,1-4.38,1.38,49.41,49.41,0,0,1-15,.79,39,39,0,0,1-7.42-1.29c-1.56-.44-5.83-1.67-5.82-4.12v-10.3c0,2.45,4.26,3.67,5.82,4.12a38.16,38.16,0,0,0,7.42,1.28,49.09,49.09,0,0,0,15-.79,22,22,0,0,0,4.38-1.38C1046.87,792.5,1048.9,791.43,1048.91,789.88Z"/><g class="cls-24"><path class="cls-25" d="M694.09,648.48c14.14,65.2,21.88,137.32,17.78,204.29-1.48,24.26-4.61,49.69-10.45,74l-1.84,5.94a60.07,60.07,0,0,0-2.2,7.45,39.82,39.82,0,0,0-1,6.79,26.21,26.21,0,0,0,0,2.94,23,23,0,0,0,.33,2.86,17.49,17.49,0,0,0,.63,2.44,13.84,13.84,0,0,0,.94,2.21l.16.3a12.72,12.72,0,0,0,6.18,5.61,17.17,17.17,0,0,0,2.62,1,23.91,23.91,0,0,0,3.13.68,32.71,32.71,0,0,0,3.56.33c1.27,0,2.53,0,3.8,0s2.79-.19,4.19-.35,3.07-.42,4.59-.7,3.31-.65,4.94-1,3.52-.88,5.27-1.37L1528.16,737.6c1.78-.51,5.45-1.85,7.2-2.47q3-1,5.92-2.24c4.2-1.7,8.32-3.6,12.37-5.65s8-4.26,11.95-6.63,7.62-4.81,11.28-7.46c3.4-2.45,6.71-5,9.89-7.8,3-2.56,5.81-5.25,8.51-8.09a93.4,93.4,0,0,0,7-8.24,71,71,0,0,0,5.48-8.42c41.16-72.9,41-170.09,22.15-246.83-11.68-47.58-30.91-96.44-64.11-139.46L629.09,461.2C660.13,520.11,680.08,583.85,694.09,648.48Z"/></g><path class="cls-11" d="M696.5,952.58a17.14,17.14,0,0,0,.63,2.44,13.84,13.84,0,0,0,.94,2.21l.17.3a12.68,12.68,0,0,0,6.18,5.61,17.69,17.69,0,0,0,2.63,1,24.06,24.06,0,0,0,3.14.68,32.89,32.89,0,0,0,3.57.33c1.27,0,2.54,0,3.8,0,1.41-.06,2.81-.18,4.21-.35s3.07-.42,4.6-.7,3.31-.65,5-1,3.52-.88,5.27-1.37L1530,737.41c1.78-.52,5.46-1.86,7.21-2.47q3-1.05,5.94-2.25c4.21-1.7,8.35-3.6,12.41-5.64s8.07-4.27,12-6.64,7.63-4.81,11.3-7.46c3.41-2.45,6.73-5.05,9.92-7.8,2.52-2.18,5-4.48,7.29-6.86L696.46,952.34C696.48,952.42,696.48,952.5,696.5,952.58Z"/><path class="cls-3" d="M1531.62,751.72c12.72-3.67,28.9-11.77,40.2-18.48,4.92-2.9,9.71-6,14.32-9.4a144.76,144.76,0,0,0,12.59-10.32,109.46,109.46,0,0,0,10.33-10.88c1.43-1.75,2.81-3.55,4.1-5.4s2.39-3.59,3.46-5.47c44-77.19,43.62-180.52,23.43-261.8-10.7-43.11-28.06-85.79-52-123.48-23.42-36.87-55.42-72.3-94.9-93.85a65.5,65.5,0,0,0-7.71-3.54,88.23,88.23,0,0,0-8.87-2.88c-3.24-.88-6.53-1.6-9.84-2.19-3.64-.66-7.31-1.16-11-1.54q-6-.63-12-.85-6.43-.25-12.88-.13c-4.36.09-8.72.29-13.07.63-4,.32-8,.74-12,1.32L1101,248.05l.76-69.44-13.52,1.78-.5,69.61-.16,15.76h0l226.87-34,90.89-13.28q2.92-.44,5.88-.76,3.18-.36,6.36-.61,6.54-.51,13.09-.63c4.29-.07,8.58,0,12.87.16,4,.17,8,.46,11.94.9,3.67.4,7.32.93,11,1.62,3.29.62,6.57,1.37,9.79,2.29a82.31,82.31,0,0,1,8.81,3,64.35,64.35,0,0,1,7.49,3.59c73.35,41.7,118.5,130.5,137,206,18.84,76.74,19,173.92-22.15,246.82a72,72,0,0,1-5.48,8.43,94.74,94.74,0,0,1-7,8.23,114.08,114.08,0,0,1-8.51,8.09q-4.77,4.13-9.89,7.81c-3.65,2.64-7.42,5.12-11.27,7.46s-7.89,4.57-12,6.63-8.18,3.94-12.38,5.65q-2.94,1.18-5.92,2.24c-1.75.61-5.42,1.95-7.2,2.47L736.36,962.18q-2.62.75-5.26,1.37c-1.64.39-3.29.73-4.94,1s-3.06.51-4.6.69c-1.39.17-2.79.29-4.19.36s-2.53.07-3.79,0a32.66,32.66,0,0,1-3.57-.33,24.27,24.27,0,0,1-3.13-.68,19.18,19.18,0,0,1-2.62-1,12.71,12.71,0,0,1-6.17-5.61l-.17-.31a15.94,15.94,0,0,1-.94-2.21,18.19,18.19,0,0,1-.63-2.44,22.76,22.76,0,0,1-.33-2.86,28.83,28.83,0,0,1,0-2.94,41,41,0,0,1,1-6.79,60.58,60.58,0,0,1,2.2-7.45c-.6,1.65-5.93,21-6.42,22.73s-.91,3.39-1.24,5.11c-.27,1.42-.49,2.84-.62,4.27a32,32,0,0,0-.13,4.27,23,23,0,0,0,.44,3.79,17.86,17.86,0,0,0,.9,3,14.09,14.09,0,0,0,1.56,2.85,12.65,12.65,0,0,0,2,2.17,13.67,13.67,0,0,0,2.52,1.75,17.45,17.45,0,0,0,3.1,1.28,23.08,23.08,0,0,0,3.69.79,31.2,31.2,0,0,0,3.87.28,44.86,44.86,0,0,0,4.92-.19c1.67-.14,3.34-.36,5-.64,1.83-.3,3.66-.67,5.47-1.09,2-.45,3.94-1,5.89-1.53"/><path class="cls-26" d="M1616.62,691.5c-1.07,1.87-2.23,3.69-3.46,5.46s-2.67,3.66-4.1,5.4a108.38,108.38,0,0,1-10.33,10.88,143,143,0,0,1-12.59,10.32c-4.61,3.38-9.4,6.5-14.32,9.41-11.3,6.7-27.48,14.8-40.2,18.48L730.09,981.67c-2,.56-3.92,1.07-5.89,1.53-1.81.41-3.64.78-5.47,1.09-1.65.27-3.32.49-5,.64a47.49,47.49,0,0,1-4.92.19,33.26,33.26,0,0,1-3.87-.29,23.08,23.08,0,0,1-3.69-.79,17.45,17.45,0,0,1-3.1-1.28,14.12,14.12,0,0,1-2.52-1.74,13.45,13.45,0,0,1-2-2.17,14.16,14.16,0,0,1-1.56-2.86,17.6,17.6,0,0,1-.9-3,23,23,0,0,1-.44-3.79,31.87,31.87,0,0,1,.13-4.26c.13-1.44.35-2.86.62-4.27.33-1.73.75-3.43,1.24-5.12s5.82-21.08,6.42-22.73a60.73,60.73,0,0,0-2.2,7.46,40.87,40.87,0,0,0-1,6.78,28.83,28.83,0,0,0,0,2.94,22.76,22.76,0,0,0,.33,2.86,18.73,18.73,0,0,0,.63,2.45,15.94,15.94,0,0,0,.94,2.21l.17.3a12.71,12.71,0,0,0,6.17,5.61,18,18,0,0,0,2.62,1,24.23,24.23,0,0,0,3.13.67,30.36,30.36,0,0,0,3.57.33c1.26,0,2.53,0,3.79,0s2.8-.19,4.19-.35c1.54-.19,3.07-.42,4.6-.7s3.3-.65,4.94-1,3.51-.87,5.26-1.36l791.41-224.25c1.78-.51,5.45-1.86,7.2-2.47q3-1.05,5.92-2.24c4.2-1.7,8.33-3.6,12.38-5.65s8-4.27,12-6.63,7.62-4.82,11.27-7.46c3.41-2.46,6.71-5.05,9.89-7.8a116.17,116.17,0,0,0,8.51-8.09,94.87,94.87,0,0,0,7-8.24,71.16,71.16,0,0,0,5.48-8.43Z"/><path d="M1045.89,333.42l-.29-.12.14-15.39a1.34,1.34,0,0,1-.07.4,1.45,1.45,0,0,0,0-.3c-.08-1.52-1.35-3-3.77-4a13.19,13.19,0,0,0-1.74-.59l.17.06c0,.64-.86,1.08-1.3,1.28a8.52,8.52,0,0,1-1.84.57,20.45,20.45,0,0,1-6.29.33,16.31,16.31,0,0,1-3.11-.53c-.66-.19-2.43-.69-2.44-1.7-3.53,1-5.08,2.29-5.33,4.41,0,0,0,0,0,0v.1h0l-.14,15.29c-3.39,1.34-4.82,3-5,5.12v19.1c0,2.43,4.23,3.64,5.78,4.09a38.56,38.56,0,0,0,7.37,1.28A49.06,49.06,0,0,0,1043,362a21.63,21.63,0,0,0,4.36-1.37c1.05-.48,3.07-1.54,3.07-3.08V338.48C1050.36,336.6,1048.92,334.71,1045.89,333.42Z"/><path class="cls-14" d="M1025.61,313.35c-3.73,1-5.33,2.34-5.55,4.54,0,1.74,3.06,2.61,4.18,2.93a28.29,28.29,0,0,0,5.33.91,35.74,35.74,0,0,0,10.77-.56,16.22,16.22,0,0,0,3.15-1c.77-.34,2.22-1.1,2.23-2.2-.08-1.52-1.35-3-3.77-4a13.15,13.15,0,0,0-1.74-.58l.17,0c0,.64-.86,1.09-1.3,1.29a9.8,9.8,0,0,1-1.84.57,21.09,21.09,0,0,1-6.29.33,16.33,16.33,0,0,1-3.11-.54c-.66-.18-2.45-.69-2.45-1.7"/><path class="cls-14" d="M1045.89,333.42c3,1.29,4.47,3.18,4.53,5.06,0,1.54-2,2.6-3.07,3.08a21.63,21.63,0,0,1-4.36,1.37,49.06,49.06,0,0,1-14.9.79,39.35,39.35,0,0,1-7.37-1.28c-1.55-.45-5.79-1.66-5.78-4.1.16-2.15,1.42-3.76,5-5.12,0,1.74,3.11,2.95,4.22,3.27a27.71,27.71,0,0,0,5.26.91,35.27,35.27,0,0,0,10.65-.56,16.05,16.05,0,0,0,3.11-1c.76-.34,2.43-1.46,2.44-2.56Z"/><path class="cls-27" d="M1025.75,313.35c-3.72,1-5.32,2.34-5.55,4.54,0,1.74,3.06,2.61,4.19,2.93a28.29,28.29,0,0,0,5.33.91,35.75,35.75,0,0,0,10.77-.56,16.66,16.66,0,0,0,3.15-1c.76-.34,2.22-1.1,2.22-2.2-.07-1.52-1.35-3-3.77-4a13,13,0,0,0-1.73-.58l.16,0c0,.64-.85,1.09-1.29,1.29a10,10,0,0,1-1.84.57,21.1,21.1,0,0,1-6.29.33,16.57,16.57,0,0,1-3.12-.54c-.65-.18-2.44-.69-2.44-1.7"/><path class="cls-28" d="M1046,333.42c3,1.29,4.47,3.18,4.53,5.06,0,1.54-2,2.6-3.08,3.08a21.35,21.35,0,0,1-4.35,1.37,49.07,49.07,0,0,1-14.9.79,39.21,39.21,0,0,1-7.37-1.28c-1.56-.45-5.79-1.66-5.79-4.1.17-2.15,1.43-3.76,5-5.12,0,1.74,3.11,2.95,4.22,3.27a27.81,27.81,0,0,0,5.27.91,35.29,35.29,0,0,0,10.65-.56,16.27,16.27,0,0,0,3.11-1c.75-.34,2.43-1.46,2.43-2.56Z"/><path d="M1054.2,317.84v0S1054.2,317.86,1054.2,317.84Z"/><polygon class="cls-29" points="1049.07 338.34 1049.07 338.34 1049.07 338.34 1049.07 338.34"/><path class="cls-30" d="M1024.14,336.47a27.71,27.71,0,0,0,5.26.91,35,35,0,0,0,10.65-.56,16.05,16.05,0,0,0,3.11-1c.76-.34,2.43-1.46,2.44-2.56l.14-15.39a1.34,1.34,0,0,1-.07.4,1.47,1.47,0,0,0,0-.29v0c0,1.09-1.46,1.85-2.22,2.19a15.56,15.56,0,0,1-3.15,1,35.74,35.74,0,0,1-10.77.56,27.51,27.51,0,0,1-5.33-.91c-1.12-.32-4.17-1.19-4.18-2.92h0l-.14,15.29C1019.91,334.94,1023,336.15,1024.14,336.47Z"/><path class="cls-31" d="M1047.35,341.54a21.63,21.63,0,0,1-4.36,1.37,49.06,49.06,0,0,1-14.9.79,39.35,39.35,0,0,1-7.37-1.28c-1.55-.45-5.79-1.66-5.78-4.1v19.1c0,2.43,4.23,3.64,5.78,4.09a38.56,38.56,0,0,0,7.37,1.28A48.74,48.74,0,0,0,1043,362a21.63,21.63,0,0,0,4.36-1.37c1.05-.48,3.07-1.54,3.07-3.08V338.46C1050.42,340,1048.4,341.06,1047.35,341.54Z"/><path class="cls-32" d="M1050.42,347.31v10.24c0,1.54-2,2.6-3.07,3.08A21.63,21.63,0,0,1,1043,362a48.74,48.74,0,0,1-14.9.79,38.56,38.56,0,0,1-7.37-1.28c-1.55-.45-5.79-1.66-5.78-4.09V347.18c0,2.43,4.23,3.64,5.78,4.09a38.56,38.56,0,0,0,7.37,1.28,49.06,49.06,0,0,0,14.9-.79,21.63,21.63,0,0,0,4.36-1.37C1048.4,349.91,1050.42,348.85,1050.42,347.31Z"/><path class="cls-33" d="M1023.18,316.8a48,48,0,0,0,6.26.74,60.68,60.68,0,0,0,12.64-.46,24.66,24.66,0,0,0,3.69-.79c.9-.27,2.88-1.18,2.89-2.07l.17-12.43a.63.63,0,0,1-.09.33.71.71,0,0,0,.06-.24h0c0,.88-1.73,1.49-2.64,1.77a25,25,0,0,1-3.74.79,61.4,61.4,0,0,1-12.79.45,47.39,47.39,0,0,1-6.32-.73c-1.34-.26-5-1-5-2.36h0l-.16,12.35C1018.17,315.56,1021.87,316.54,1023.18,316.8Z"/><path class="cls-34" d="M1018.36,301.66c0,1.85,2.9,3.84,15.23,3.85,12,0,15.24-2,15.24-3.85s-6.82-3.35-15.24-3.35S1018.36,299.81,1018.36,301.66Z"/><path class="cls-35" d="M1020.66,301.47,1021,150l25.94.06-.75,151.39s0,2.54-12.27,2.54C1020.66,304,1020.66,301.47,1020.66,301.47Z"/><path class="cls-36" d="M1023.63,153a47.83,47.83,0,0,0,6.25.74,60.68,60.68,0,0,0,12.64-.46,24.66,24.66,0,0,0,3.69-.79c.9-.27,2.88-1.18,2.89-2.07l.17-12.42a.72.72,0,0,1-.08.32.94.94,0,0,0,.06-.24h0c0,.88-1.73,1.49-2.63,1.77a25.59,25.59,0,0,1-3.74.79,61.43,61.43,0,0,1-12.79.45,47.35,47.35,0,0,1-6.33-.73c-1.33-.26-5-1-5-2.36h0l-.17,12.35C1018.62,151.79,1022.31,152.77,1023.63,153Z"/><path class="cls-34" d="M1018.8,137.89c0,1.85,2.9,3.65,15.24,3.65,12,0,15.23-1.8,15.23-3.65,0-1.26-3.16-2.36-7.84-2.93,0,0,0,1.6-7.39,1.6-7.89,0-8.14-1.5-8.14-1.5C1021.63,135.65,1018.8,136.7,1018.8,137.89Z"/></svg>